<svg t="1706259371107" class="icon" viewBox="0 0 1024 1024" version="1.1" xmlns="http://www.w3.org/2000/svg" p-id="7962"
     width="40" height="40">
    <path d="M368 85.333333A69.333333 69.333333 0 0 0 298.666667 154.666667v128a16 16 0 0 1-16 16h-128A69.333333 69.333333 0 0 0 85.333333 368v128a69.333333 69.333333 0 0 0 69.333334 69.333333h341.333333a69.333333 69.333333 0 0 0 69.333333-69.333333v-128a16 16 0 0 1 16-16h128a69.333333 69.333333 0 0 0 69.333334-69.333333v-128A69.333333 69.333333 0 0 0 709.333333 85.333333h-341.333333z m341.333333 213.333334H565.333333V138.666667h144a16 16 0 0 1 16 16v128a16 16 0 0 1-16 16zM512 298.666667h-160V154.666667a16 16 0 0 1 16-16H512V298.666667z m-213.333333 53.333333V512H154.666667a16 16 0 0 1-16-16v-128a16 16 0 0 1 16-16H298.666667z m53.333333 0H512v144a16 16 0 0 1-16 16H352v-160z m389.333333 106.666667h128A69.333333 69.333333 0 0 1 938.666667 528v341.333333A69.333333 69.333333 0 0 1 869.333333 938.666667h-586.666666A69.333333 69.333333 0 0 1 213.333333 869.333333v-128a69.333333 69.333333 0 0 1 69.333334-69.333333h373.333333a16 16 0 0 0 16-16v-128a69.333333 69.333333 0 0 1 69.333333-69.333333z m-69.333333 426.666666V725.333333h-170.666667v160h170.666667z m213.333333-160H725.333333v160h144a16 16 0 0 0 16-16V725.333333zM725.333333 672h160v-144a16 16 0 0 0-16-16h-128a16 16 0 0 0-16 16v144zM448 725.333333h-165.333333a16 16 0 0 0-16 16v128c0 8.832 7.168 16 16 16H448V725.333333z"
          fill="#ffffff" p-id="7963"></path>
</svg>